<svg width="159" height="25" viewBox="0 0 159 25" fill="none" xmlns="http://www.w3.org/2000/svg">
<path d="M11.6 24.7467C7.68889 24.7289 4.81778 24.0711 2.98667 22.7733C1.17333 21.4756 0.311111 19.3867 0.4 16.5067H7.04C7.12889 18.1422 8.64889 18.9689 11.6 18.9867C12.9511 19.0044 13.9733 18.8444 14.6667 18.5067C15.3778 18.1689 15.7333 17.7244 15.7333 17.1733C15.7333 16.2311 14.8711 15.6356 13.1467 15.3867L10.2667 14.9333C7.77778 14.5244 6.10667 14.1778 5.25333 13.8933C2.88889 13.0756 1.49333 11.6267 1.06667 9.54667C0.977778 9.06667 0.933333 8.55111 0.933333 8C0.933333 5.74222 1.84 3.99111 3.65333 2.74667C5.48444 1.48444 8.15111 0.853333 11.6533 0.853333C13.0044 0.853333 14.2044 0.933332 15.2533 1.09333C16.32 1.25333 17.3156 1.52889 18.24 1.92C19.1822 2.29333 19.9556 2.79111 20.56 3.41333C21.1644 4.01778 21.6267 4.79111 21.9467 5.73333C22.2844 6.67555 22.4444 7.77778 22.4267 9.04H15.84C15.5556 7.42222 14.1067 6.61333 11.4933 6.61333C9.18222 6.61333 8.02667 7.2 8.02667 8.37333C8.02667 9.28 8.72889 9.84 10.1333 10.0533L12.5067 10.4533C12.8267 10.5067 13.28 10.5778 13.8667 10.6667C14.4533 10.7556 14.9333 10.8267 15.3067 10.88C15.6978 10.9333 16.1778 11.0222 16.7467 11.1467C17.3156 11.2533 17.7867 11.3689 18.16 11.4933C18.5333 11.6 18.96 11.7511 19.44 11.9467C19.92 12.1422 20.32 12.3556 20.64 12.5867C20.96 12.8 21.28 13.0667 21.6 13.3867C21.9378 13.7067 22.2044 14.0622 22.4 14.4533C22.5956 14.8444 22.7556 15.2978 22.88 15.8133C23.0044 16.3111 23.0667 16.8622 23.0667 17.4667C23.0667 22.3378 19.2444 24.7644 11.6 24.7467ZM40.5446 1.6H47.9313V24H40.5446V15.8933H31.8513V24H24.4646V1.6H31.8513V9.70667H40.5446V1.6ZM71.3283 21.4667C69.0172 23.6533 65.9417 24.7467 62.1017 24.7467C58.2617 24.7467 55.1861 23.6533 52.875 21.4667C50.5639 19.28 49.4083 16.3911 49.4083 12.8C49.4083 9.20889 50.5639 6.32 52.875 4.13333C55.1861 1.94667 58.2617 0.853333 62.1017 0.853333C65.9417 0.853333 69.0172 1.94667 71.3283 4.13333C73.6394 6.32 74.795 9.20889 74.795 12.8C74.795 16.3911 73.6394 19.28 71.3283 21.4667ZM58.2617 16.88C59.2928 17.8756 60.5728 18.3733 62.1017 18.3733C63.6306 18.3733 64.9017 17.8756 65.915 16.88C66.9461 15.8844 67.4617 14.5244 67.4617 12.8C67.4617 11.0756 66.9461 9.71556 65.915 8.72C64.9017 7.72444 63.6306 7.22667 62.1017 7.22667C60.5728 7.22667 59.2928 7.72444 58.2617 8.72C57.2483 9.71556 56.7417 11.0756 56.7417 12.8C56.7417 14.5244 57.2483 15.8844 58.2617 16.88ZM76.2771 24V1.6H88.9971C92.126 1.6 94.526 2.32 96.1971 3.76C97.886 5.2 98.7304 7.39556 98.7304 10.3467C98.7304 13.2978 97.886 15.4933 96.1971 16.9333C94.526 18.3733 92.1349 19.0933 89.0238 19.0933H83.6638V24H76.2771ZM83.6638 12.96H88.3571C89.2638 12.96 89.9749 12.7378 90.4904 12.2933C91.0238 11.8489 91.2904 11.2 91.2904 10.3467C91.2904 9.49333 91.0326 8.84444 90.5171 8.4C90.0015 7.95556 89.2904 7.73333 88.3837 7.73333H83.6638V12.96ZM105.013 23.36C104.284 24.0711 103.421 24.4267 102.426 24.4267C101.43 24.4267 100.568 24.0711 99.8392 23.36C99.1103 22.6311 98.7458 21.7778 98.7458 20.8C98.7458 19.8222 99.1103 18.9778 99.8392 18.2667C100.568 17.5378 101.43 17.1733 102.426 17.1733C103.421 17.1733 104.284 17.5378 105.013 18.2667C105.741 18.9778 106.106 19.8222 106.106 20.8C106.106 21.7778 105.741 22.6311 105.013 23.36ZM120.151 24.7467C116.382 24.7467 113.342 23.6533 111.031 21.4667C108.72 19.28 107.565 16.3911 107.565 12.8C107.565 9.20889 108.72 6.32 111.031 4.13333C113.342 1.94667 116.382 0.853333 120.151 0.853333C121.289 0.853333 122.373 0.959999 123.405 1.17333C124.436 1.36889 125.449 1.71555 126.445 2.21333C127.44 2.69333 128.311 3.30667 129.058 4.05333C129.805 4.78222 130.436 5.73333 130.951 6.90667C131.485 8.06222 131.822 9.36889 131.965 10.8267H124.925C124.32 8.42667 122.729 7.22667 120.151 7.22667C118.658 7.22667 117.405 7.74222 116.391 8.77333C115.396 9.80444 114.898 11.1467 114.898 12.8C114.898 14.4533 115.396 15.7956 116.391 16.8267C117.405 17.8578 118.658 18.3733 120.151 18.3733C122.729 18.3733 124.32 17.1556 124.925 14.72H131.965C131.787 16.5511 131.333 18.1422 130.605 19.4933C129.876 20.8267 128.951 21.8667 127.831 22.6133C126.711 23.36 125.511 23.9022 124.231 24.24C122.969 24.5778 121.609 24.7467 120.151 24.7467ZM155.235 21.4667C152.923 23.6533 149.848 24.7467 146.008 24.7467C142.168 24.7467 139.092 23.6533 136.781 21.4667C134.47 19.28 133.315 16.3911 133.315 12.8C133.315 9.20889 134.47 6.32 136.781 4.13333C139.092 1.94667 142.168 0.853333 146.008 0.853333C149.848 0.853333 152.923 1.94667 155.235 4.13333C157.546 6.32 158.701 9.20889 158.701 12.8C158.701 16.3911 157.546 19.28 155.235 21.4667ZM142.168 16.88C143.199 17.8756 144.479 18.3733 146.008 18.3733C147.537 18.3733 148.808 17.8756 149.821 16.88C150.852 15.8844 151.368 14.5244 151.368 12.8C151.368 11.0756 150.852 9.71556 149.821 8.72C148.808 7.72444 147.537 7.22667 146.008 7.22667C144.479 7.22667 143.199 7.72444 142.168 8.72C141.155 9.71556 140.648 11.0756 140.648 12.8C140.648 14.5244 141.155 15.8844 142.168 16.88Z" fill="black"/>
</svg>
